<svg width="32" height="32" viewBox="0 0 32 32" fill="none" xmlns="http://www.w3.org/2000/svg">
<path d="M25.3555 20.5581C23.5149 20.5581 21.8737 21.4352 20.8239 22.7907L12.0332 17.8804C12.2392 17.289 12.3521 16.6512 12.3521 15.9934C12.3521 15.3289 12.2392 14.6977 12.0266 14.0997L20.8106 9.19601C21.8538 10.5581 23.5016 11.4419 25.3488 11.4419C28.4983 11.4419 31.0698 8.87708 31.0698 5.72093C31.0698 2.56478 28.505 0 25.3488 0C22.1927 0 19.6279 2.56478 19.6279 5.72093C19.6279 6.38538 19.7409 7.02326 19.9535 7.61462L11.1761 12.5183C10.1329 11.1495 8.48504 10.2724 6.63786 10.2724C3.48836 10.2724 0.916931 12.8372 0.916931 15.9934C0.916931 19.1495 3.48836 21.7143 6.64451 21.7143C8.49168 21.7143 10.1395 20.8306 11.1894 19.4618L19.9734 24.3721C19.7608 24.9701 19.6412 25.6146 19.6412 26.2791C19.6412 29.4286 22.206 32 25.3621 32C28.5183 32 31.083 29.4352 31.083 26.2791C31.083 23.1229 28.5116 20.5581 25.3555 20.5581ZM25.3555 1.80066C27.5216 1.80066 29.2824 3.56146 29.2824 5.72757C29.2824 7.89369 27.5216 9.65448 25.3555 9.65448C23.1894 9.65448 21.4286 7.89369 21.4286 5.72757C21.4286 3.56146 23.196 1.80066 25.3555 1.80066ZM6.64451 19.9203C4.47839 19.9203 2.7176 18.1595 2.7176 15.9934C2.7176 13.8272 4.47839 12.0664 6.64451 12.0664C8.81062 12.0664 10.5714 13.8272 10.5714 15.9934C10.5714 18.1595 8.80397 19.9203 6.64451 19.9203ZM25.3555 30.1993C23.1894 30.1993 21.4286 28.4385 21.4286 26.2724C21.4286 24.1063 23.1894 22.3455 25.3555 22.3455C27.5216 22.3455 29.2824 24.1063 29.2824 26.2724C29.2824 28.4385 27.5216 30.1993 25.3555 30.1993Z" fill="#88C8B0"/>
</svg>
